<svg xmlns="http://www.w3.org/2000/svg" width="97.1" height="45.6" viewBox="0 0 97.1 45.6"><g opacity=".1" fill="#4B4668"><path d="M13.6 33c0 1.1.9 2 2 2h38v-8.4h-40V33zM58.6 26.6V35h33c2.2 0 4-1.8 4-4v-4.4h-37z"/></g><path fill="#97E9FF" d="M75.7 13.1h-8.1c-.6 0-1-.4-1-1v-5c0-.6.4-1 1-1h4.5c.3 0 .6.2.8.4l3.6 5c.5.7 0 1.6-.8 1.6z"/><path fill="none" stroke="#97E9FF" stroke-width="3" stroke-linecap="round" stroke-linejoin="round" stroke-miterlimit="10" d="M9.2 23.6h14"/><path fill="none" stroke="#4B4668" stroke-width="3" stroke-linecap="round" stroke-linejoin="round" stroke-miterlimit="10" d="M81.1 13l-6.9-9.2c-.4-.5-1-.8-1.6-.8h-12c-1.1 0-2 .9-2 2v30h33c2.2 0 4-1.8 4-4V19c0-2.2-1.8-4-4-4h-6.5c-1.5 0-3-.8-4-2z"/><circle fill="#FFF" stroke="#4B4668" stroke-width="3" stroke-linecap="round" stroke-linejoin="round" stroke-miterlimit="10" cx="77.1" cy="35.1" r="9"/><path fill="none" stroke="#4B4668" stroke-width="3" stroke-linecap="round" stroke-linejoin="round" stroke-miterlimit="10" d="M64.2 19.5h4M55.4 44.1h35.4M19 44.1h29.4M14.2 44.1h.8M73.2 15.1h-8.1c-.6 0-1-.4-1-1v-5c0-.6.4-1 1-1h4.5c.3 0 .6.2.8.4l3.6 5c.5.7 0 1.6-.8 1.6zM8.2 23.6h5M11.2 26.1h2M4.2 23.6"/><g opacity=".2" fill="none" stroke="#4B4668" stroke-width="3" stroke-linecap="round" stroke-linejoin="round" stroke-miterlimit="10"><path d="M87.2 1.5v5M89.7 4h-5"/></g><g opacity=".2" fill="none" stroke="#4B4668" stroke-width="3" stroke-linecap="round" stroke-linejoin="round" stroke-miterlimit="10"><path d="M4 11v5M6.5 13.5h-5"/></g><circle opacity=".5" fill="none" stroke="#97E9FF" stroke-width="3" stroke-linecap="round" stroke-linejoin="round" stroke-miterlimit="10" cx="41.7" cy="7.1" r="2.5"/><path fill="none" stroke="#4B4668" stroke-width="3" stroke-linecap="round" stroke-linejoin="round" stroke-miterlimit="10" d="M13.6 19v14c0 1.1.9 2 2 2h38V19h-40z"/><circle fill="#FFF" stroke="#4B4668" stroke-width="3" stroke-linecap="round" stroke-linejoin="round" stroke-miterlimit="10" cx="33.6" cy="35.1" r="9"/></svg>